PathFileType	4	(X/Y/Z)	./resultDataOpenSim/trcMotMarkerGrf/sub10/qtm-14-08.trc
DataRate	CameraRate	NumFrames	NumMarkers	Units	OrigDataRate	OrigDataStartFrame	OrigNumFrames
250.000000	250.000000	6	24	m	250.000000	317	507
Frame#	Time	L.Toe.Tip			R.Toe.Tip			L.Ankle.Lat			R.Ankle.Lat			L.Ankle.Med			R.Ankle.Med			L.Heel			R.Heel			L.Knee.Lat			R.Knee.Lat			L.Knee.Med			R.Knee.Med			L.Thigh.Upper			R.Thigh.Upper			L.ASIS			R.ASIS			V.Sacral			L.Acromium			R.Acromium			C7			L.Elbow			R.Elbow			L.Wrist.Lat			R.Wrist.Lat
		X1	Y1	Z1	X2	Y2	Z2	X3	Y3	Z3	X4	Y4	Z4	X5	Y5	Z5	X6	Y6	Z6	X7	Y7	Z7	X8	Y8	Z8	X9	Y9	Z9	X10	Y10	Z10	X11	Y11	Z11	X12	Y12	Z12	X13	Y13	Z13	X14	Y14	Z14	X15	Y15	Z15	X16	Y16	Z16	X17	Y17	Z17	X18	Y18	Z18	X19	Y19	Z19	X20	Y20	Z20	X21	Y21	Z21	X22	Y22	Z22	X23	Y23	Z23	X24	Y24	Z24

317	1.264	0.12104693	-0.011375662	-0.085250297	0.91861643	0.039854362	-0.013021994	0.10155081	0.12768741	-0.12908883	0.77941429	0.052193048	0.039241108	0.13710587	0.13005382	-0.052327001	0.78893753	0.08110139	-0.046213646	0.0586065	0.17089996	-0.077804901	0.725364	0.02946263	-0.0027801167	0.36221652	0.41323002	-0.16649824	0.76490423	0.45094633	0.075644171	0.38764073	0.36892286	-0.053631996	0.74087954	0.45892558	-0.050201231	0.49209697	0.77381827	-0.21314527	0.62272227	0.83340332	0.15731152	0.58167336	0.87747353	-0.16517859	0.65235337	0.90242987	0.061435459	0.42401337	0.91904386	0.0017125976	0.52335872	1.3799744	-0.16963747	0.49630766	1.3740788	0.14232831	0.43659063	1.3894317	-0.021151982	0.5021258	1.051767	-0.31406977	0.33587606	1.0829116	0.20243974	0.74017966	1.0498232	-0.40705317	0.25410279	0.96368191	0.40087056
318	1.268	0.12473915	-0.0085098755	-0.087902434	0.91875341	0.039751394	-0.013027654	0.10786462	0.13175236	-0.13001236	0.77951718	0.052283101	0.039086141	0.14350935	0.13324166	-0.053237945	0.78909506	0.081021829	-0.046408246	0.065748156	0.17551361	-0.078290457	0.72543369	0.029488436	-0.0028715611	0.37252833	0.41268187	-0.16765553	0.76899278	0.45116217	0.075160482	0.39819271	0.36840043	-0.054795322	0.74623342	0.45967118	-0.050724406	0.49950876	0.77399902	-0.21345198	0.62805775	0.83429364	0.15751584	0.5882452	0.87806509	-0.1648862	0.65899747	0.90350475	0.061417153	0.43015558	0.91911915	0.0016877188	0.5296807	1.3808759	-0.16950246	0.5025987	1.3747153	0.14285312	0.4426502	1.390699	-0.020698949	0.50779148	1.0524803	-0.31404757	0.34314665	1.0827514	0.20210408	0.74552292	1.0497948	-0.40563471	0.2611757	0.96253869	0.39975005
319	1.272	0.12880676	-0.0053480489	-0.090646928	0.91884088	0.039663153	-0.013023544	0.11432707	0.13587866	-0.1308992	0.77961467	0.052326313	0.038955588	0.15009322	0.13651525	-0.054161234	0.78932037	0.080961069	-0.046575607	0.072999298	0.18011159	-0.07876333	0.72547179	0.029493227	-0.0029412726	0.38302882	0.41212317	-0.16882572	0.77271431	0.45127837	0.074821026	0.4088343	0.36797156	-0.055916016	0.75135576	0.46031911	-0.051208158	0.50682283	0.77416826	-0.2136436	0.63320692	0.83514301	0.157739	0.59474652	0.87870034	-0.16457636	0.6655037	0.9047454	0.061524912	0.435763	0.91932921	0.0016391933	0.53599486	1.3818143	-0.16936811	0.50888285	1.3754179	0.1433438	0.4486847	1.3920282	-0.020295757	0.51336206	1.053205	-0.31381498	0.35044637	1.0826161	0.20175881	0.75078605	1.0496613	-0.40420267	0.26842193	0.96134912	0.39862346
320	1.276	0.13328223	-0.0018905925	-0.093476256	0.91887579	0.03959826	-0.013054959	0.12095154	0.14004953	-0.13178121	0.77968568	0.052342127	0.038845603	0.15687069	0.13986137	-0.055097982	0.78948363	0.080915271	-0.046709099	0.080380606	0.18468707	-0.079259213	0.7254726	0.029479184	-0.0029789408	0.39363753	0.41157825	-0.16994138	0.77611316	0.45131574	0.074603024	0.41951617	0.36763014	-0.056984481	0.75617246	0.46087076	-0.05164814	0.51401956	0.77431758	-0.21373432	0.6381979	0.83600808	0.15797924	0.6012008	0.87939268	-0.16424715	0.67181831	0.90619217	0.061780137	0.44078395	0.91968754	0.0012217067	0.54228746	1.3827952	-0.16922457	0.5151757	1.3761916	0.14380334	0.45468742	1.3934002	-0.019938252	0.51877841	1.05392	-0.31320778	0.35777243	1.0825056	0.20140282	0.75597602	1.0494242	-0.4027555	0.27583948	0.96012375	0.3974911
321	1.28	0.13815919	0.001825134	-0.096363273	0.91887458	0.039556496	-0.013102594	0.1277656	0.14426708	-0.13269119	0.7797173	0.052361227	0.038753285	0.16385151	0.14326324	-0.056046074	0.78954083	0.080878268	-0.046808237	0.087917247	0.1892393	-0.079785131	0.72544547	0.029457571	-0.0029913463	0.40431856	0.4110713	-0.17098435	0.77925831	0.45130655	0.074503768	0.43021468	0.36737373	-0.057990847	0.76062167	0.46134065	-0.052025184	0.52109031	0.77443772	-0.21373434	0.64307486	0.83693723	0.15825353	0.60760896	0.88014912	-0.16391219	0.67790579	0.90785776	0.062179527	0.4456475	0.92008835	0.00044685717	0.54854595	1.3838238	-0.1690593	0.52149116	1.3770405	0.14422978	0.46064683	1.3948015	-0.019613521	0.52410886	1.0547279	-0.31254985	0.36512149	1.0824247	0.20102816	0.76109962	1.0490781	-0.40129866	0.28342877	0.95887212	0.39635115
322	1.284	0.14340788	0.0057325416	-0.099230056	0.91885607	0.039530312	-0.013137796	0.13480468	0.14853743	-0.13364007	0.779709	0.052397507	0.03868156	0.17104178	0.14670524	-0.057002247	0.78953105	0.080851735	-0.04687442	0.095628794	0.19377186	-0.08033484	0.7254052	0.029437868	-0.0029863872	0.41507101	0.41061684	-0.17196937	0.7821772	0.45125738	0.074516399	0.4409296	0.36721164	-0.058921384	0.7646508	0.46174156	-0.05231901	0.52804193	0.774526	-0.21363756	0.64788178	0.83795991	0.15858209	0.61395422	0.88097192	-0.16358947	0.68381195	0.90969329	0.062676233	0.45076957	0.92047023	-0.00056523065	0.55475903	1.384902	-0.16886303	0.52782501	1.3779669	0.14461326	0.46655518	1.396226	-0.019305716	0.52938714	1.0556652	-0.3120057	0.37249408	1.0823792	0.2006329	0.766157	1.0486175	-0.39983944	0.29119076	0.95760098	0.395205
